<?xml version="1.0" encoding="utf-8"?>
<!-- Generator: Adobe Illustrator 21.0.0, SVG Export Plug-In . SVG Version: 6.00 Build 0)  -->
<svg version="1.1" id="Layer_1" xmlns="http://www.w3.org/2000/svg" xmlns:xlink="http://www.w3.org/1999/xlink" x="0px" y="0px"
	 viewBox="0 0 250 199" style="enable-background:new 0 0 250 199;" xml:space="preserve">
<style type="text/css">
	.st0{fill:#FF5C01;}
	.st1{fill:#FFFFFF;}
</style>
<path class="st0" d="M30.8,176.3h18.6v7.1H19.1v-4.9l18.5-26.4H19V145h30.2v4.8L30.8,176.3z"/>
<path class="st0" d="M84.2,145v25.2c0,2.9-0.6,5.3-1.8,7.4c-1.2,2.1-3,3.7-5.3,4.8s-5,1.6-8.1,1.6c-4.7,0-8.5-1.2-11.2-3.6
	s-4.1-5.8-4.2-10V145H63v25.6c0.1,4.2,2.1,6.3,5.9,6.3c1.9,0,3.4-0.5,4.4-1.6c1-1.1,1.5-2.8,1.5-5.2V145H84.2z"/>
<path class="st0" d="M90.1,183.5V145h14c5,0,8.8,0.9,11.4,2.7c2.6,1.8,3.9,4.4,3.9,7.9c0,2-0.5,3.7-1.4,5.1
	c-0.9,1.4-2.3,2.4-4.1,3.1c2,0.5,3.6,1.5,4.7,3c1.1,1.4,1.6,3.2,1.6,5.3c0,3.8-1.2,6.6-3.6,8.5c-2.4,1.9-6,2.8-10.7,2.9H90.1z
	 M99.5,167.1v9.2h6.1c1.7,0,3-0.4,3.9-1.1c0.9-0.8,1.4-1.9,1.4-3.3c0-3.2-1.6-4.8-4.8-4.8H99.5z M99.5,161h4.9c2,0,3.5-0.4,4.4-1.1
	c0.9-0.7,1.3-1.8,1.3-3.2c0-1.6-0.5-2.8-1.4-3.5c-0.9-0.7-2.5-1.1-4.6-1.1h-4.6V161z"/>
<path class="st0" d="M139.8,169.9h-5.1v13.6h-9.4V145h15.3c4.6,0,8.2,1,10.8,3c2.6,2,3.9,4.9,3.9,8.6c0,2.7-0.6,4.9-1.7,6.7
	c-1.1,1.8-2.8,3.2-5.1,4.3l8.1,15.5v0.4h-10L139.8,169.9z M134.8,162.7h5.9c1.8,0,3.1-0.5,4-1.4c0.9-0.9,1.4-2.2,1.4-3.9
	c0-1.7-0.5-3-1.4-3.9c-0.9-1-2.2-1.4-4-1.4h-5.9V162.7z"/>
<path class="st0" d="M166.2,174.8c1.4,0,2.6,0.4,3.6,1.3c0.9,0.8,1.4,1.9,1.4,3.2c0,1.3-0.5,2.4-1.4,3.2c-0.9,0.8-2.1,1.2-3.6,1.2
	c-1.4,0-2.6-0.4-3.6-1.3c-0.9-0.8-1.4-1.9-1.4-3.2s0.5-2.4,1.4-3.2C163.6,175.3,164.8,174.8,166.2,174.8z"/>
<path class="st0" d="M181,183.5h-4.5v-20.3h4.5V183.5z"/>
<path class="st0" d="M188.5,183.5H184v-14.3h4.5V183.5z M183.8,165.5c0-0.6,0.2-1.2,0.7-1.6c0.5-0.4,1.1-0.6,1.8-0.6
	c0.7,0,1.3,0.2,1.8,0.6c0.5,0.4,0.7,0.9,0.7,1.6s-0.2,1.2-0.7,1.6s-1.1,0.6-1.8,0.6c-0.7,0-1.3-0.2-1.8-0.6
	C184,166.6,183.8,166.1,183.8,165.5z"/>
<path class="st0" d="M192.3,183.5v-11.2h-2.1v-3.1h2.1V168c0-1.6,0.5-2.9,1.5-3.8c1-0.9,2.3-1.3,4.1-1.3c0.6,0,1.3,0.1,2.1,0.3
	l0,3.3c-0.3-0.1-0.6-0.1-1.1-0.1c-1.4,0-2,0.6-2,1.7v1.1h2.8v3.1h-2.8v11.2H192.3z"/>
<path class="st0" d="M207.9,183.7c-2.2,0-4-0.7-5.4-2c-1.4-1.3-2.1-3-2.1-5.1v-0.4c0-1.5,0.3-2.8,0.8-3.9c0.6-1.1,1.4-2,2.4-2.6
	c1.1-0.6,2.3-0.9,3.7-0.9c2,0,3.6,0.6,4.8,1.9c1.2,1.2,1.8,3,1.8,5.2v1.7h-9c0.2,0.8,0.5,1.4,1.1,1.9c0.5,0.5,1.2,0.7,2.1,0.7
	c1.4,0,2.5-0.5,3.3-1.5l2.1,2.4c-0.6,0.8-1.4,1.4-2.4,1.8C210.2,183.5,209.1,183.7,207.9,183.7z M207.4,172.3
	c-1.3,0-2.1,0.9-2.4,2.6h4.5v-0.3c0-0.7-0.2-1.3-0.5-1.7C208.7,172.5,208.1,172.3,207.4,172.3z"/>
<path class="st0" d="M226,102.6v-9.9c7.9,15.8,5.4,4.7,0-6.8c-3.6-7.7-14.7-22.7-20.7-25.4c-3.9-6.6-37.6-72.6-97.4-28.3
	c-48.8,36.3-74.5,24.2-74.7,35s5.9,13.1-8.1,35.3c-7,3.5-10.1,9.3-10.1,18C43,89,39,75.7,39,75.7C44,108.4,19.8,140,19.8,140H50
	c39.8-31.5,83.3-21.6,83.3-21.6L122.4,140l32.6,0l20.5-31.5c0,0,13.5-7,0,18l35.4-5.9l5.1-5.6l3.3-8.6L226,102.6z"/>
<path class="st1" d="M200.2,81.2l5.9,10.6c2.1,0.3,6.6-1.1,6.6-1.1s-3.6-3.3-1.8-4.6c2.7-2,11.1-1.1,13.3,0
	C221.1,81.5,205.5,78.8,200.2,81.2z"/>
</svg>
